<?xml version="1.0" encoding="utf-8"?>
<!-- Generator: Adobe Illustrator 23.0.3, SVG Export Plug-In . SVG Version: 6.00 Build 0)  -->
<svg version="1.1" id="Layer_1" xmlns="http://www.w3.org/2000/svg" xmlns:xlink="http://www.w3.org/1999/xlink" x="0px" y="0px"
	 viewBox="0 0 60 60" style="enable-background:new 0 0 60 60;" xml:space="preserve">
<style type="text/css">
	.st0{fill:url(#SVGID_1_);}
	.st1{fill:url(#SVGID_2_);}
	.st2{fill:url(#SVGID_3_);}
	.st3{fill:url(#SVGID_4_);}
	.st4{fill:url(#SVGID_5_);}
	.st5{fill:url(#SVGID_6_);}
</style>
<g>
	<linearGradient id="SVGID_1_" gradientUnits="userSpaceOnUse" x1="16.5851" y1="11.1885" x2="36.5329" y2="11.1885">
		<stop  offset="0" style="stop-color:#5F2D5E"/>
		<stop  offset="7.530000e-02" style="stop-color:#642F64"/>
		<stop  offset="0.2485" style="stop-color:#71336E"/>
		<stop  offset="0.3743" style="stop-color:#753472"/>
		<stop  offset="1" style="stop-color:#753472"/>
	</linearGradient>
	<polygon class="st0" points="36.5,1.7 36.5,20.7 26.6,14.9 16.6,20.7 16.6,13.2 	"/>
	<linearGradient id="SVGID_2_" gradientUnits="userSpaceOnUse" x1="36.5329" y1="30.3617" x2="56.4806" y2="30.3617">
		<stop  offset="0" style="stop-color:#5F2D5E"/>
		<stop  offset="7.530000e-02" style="stop-color:#642F64"/>
		<stop  offset="0.2485" style="stop-color:#71336E"/>
		<stop  offset="0.3743" style="stop-color:#753472"/>
		<stop  offset="1" style="stop-color:#753472"/>
	</linearGradient>
	<polygon class="st1" points="56.5,13.2 56.5,59 46.5,59 46.5,26.4 36.5,20.7 36.5,1.7 	"/>
	<linearGradient id="SVGID_3_" gradientUnits="userSpaceOnUse" x1="29.8836" y1="39.8269" x2="43.1822" y2="39.8269">
		<stop  offset="0" style="stop-color:#5F2D5E"/>
		<stop  offset="7.530000e-02" style="stop-color:#642F64"/>
		<stop  offset="0.2485" style="stop-color:#71336E"/>
		<stop  offset="0.3743" style="stop-color:#753472"/>
		<stop  offset="1" style="stop-color:#753472"/>
	</linearGradient>
	<path class="st2" d="M29.9,20.7V59h13.3V28.3L29.9,20.7z M33.7,38.3l-1.9-1.1v-2.8l1.9,1.1V38.3z M33.7,33.1L31.9,32v-2.8l1.9,1.1
		V33.1z M33.7,28l-1.9-1.1v-2.8l1.9,1.1V28z M37.5,40.4l-1.9-1.1v-2.8l1.9,1.1V40.4z M37.5,35.3l-1.9-1.1v-2.8l1.9,1.1V35.3z
		 M37.5,30.1L35.6,29v-2.8l1.9,1.1V30.1z M41.2,42.6l-1.9-1.1v-2.8l1.9,1.1V42.6z M41.2,37.4l-1.9-1.1v-2.8l1.9,1.1V37.4z
		 M41.2,32.3l-1.9-1.1v-2.8l1.9,1.1V32.3z"/>
	<linearGradient id="SVGID_4_" gradientUnits="userSpaceOnUse" x1="3.5194" y1="44.764" x2="15.0425" y2="44.764">
		<stop  offset="0" style="stop-color:#5F2D5E"/>
		<stop  offset="7.530000e-02" style="stop-color:#642F64"/>
		<stop  offset="0.2485" style="stop-color:#71336E"/>
		<stop  offset="0.3743" style="stop-color:#753472"/>
		<stop  offset="1" style="stop-color:#753472"/>
	</linearGradient>
	<polygon class="st3" points="15,30.5 15,59 3.5,59 3.5,37.2 	"/>
	<linearGradient id="SVGID_5_" gradientUnits="userSpaceOnUse" x1="15.0425" y1="44.764" x2="26.559" y2="44.764">
		<stop  offset="0" style="stop-color:#5F2D5E"/>
		<stop  offset="7.530000e-02" style="stop-color:#642F64"/>
		<stop  offset="0.2485" style="stop-color:#71336E"/>
		<stop  offset="0.3743" style="stop-color:#753472"/>
		<stop  offset="1" style="stop-color:#753472"/>
	</linearGradient>
	<polygon class="st4" points="26.6,37.2 26.6,59 15,59 15,30.5 	"/>
	<linearGradient id="SVGID_6_" gradientUnits="userSpaceOnUse" x1="9.9382" y1="26.806" x2="23.2367" y2="26.806">
		<stop  offset="0" style="stop-color:#5F2D5E"/>
		<stop  offset="7.530000e-02" style="stop-color:#642F64"/>
		<stop  offset="0.2485" style="stop-color:#71336E"/>
		<stop  offset="0.3743" style="stop-color:#753472"/>
		<stop  offset="1" style="stop-color:#753472"/>
	</linearGradient>
	<polygon class="st5" points="15,28.2 23.2,33 23.2,20.7 9.9,28.3 9.9,31.2 	"/>
</g>
<g>
	<g>
		<defs>
			<rect id="SVGID_7_" x="-334.7" y="-127.2" width="477.2" height="424.2"/>
		</defs>
		<clipPath id="SVGID_8_">
			<use xlink:href="#SVGID_7_"  style="overflow:visible;"/>
		</clipPath>
	</g>
</g>
</svg>
