<?xml version="1.0" encoding="utf-8"?>
<!-- Generator: Adobe Illustrator 23.0.3, SVG Export Plug-In . SVG Version: 6.00 Build 0)  -->
<svg version="1.1" xmlns="http://www.w3.org/2000/svg" xmlns:xlink="http://www.w3.org/1999/xlink" x="0px" y="0px"
	 viewBox="0 0 60 60" style="enable-background:new 0 0 60 60;" xml:space="preserve">
<style type="text/css">
	.st0{display:none;}
	.st1{display:inline;}
	.st2{fill:url(#SVGID_1_);}
	.st3{fill:url(#SVGID_2_);}
	.st4{fill:url(#SVGID_3_);}
	.st5{fill:url(#SVGID_4_);}
	.st6{fill:url(#SVGID_5_);}
	.st7{fill:url(#SVGID_6_);}
	.st8{fill:url(#SVGID_7_);}
	.st9{fill:url(#SVGID_8_);}
	.st10{fill:url(#SVGID_9_);}
	.st11{fill:#F1F5F6;}
	.st12{fill:url(#SVGID_10_);}
	.st13{fill:url(#SVGID_11_);}
	.st14{fill:url(#SVGID_12_);}
	.st15{fill:url(#SVGID_13_);}
	.st16{fill:url(#SVGID_14_);}
	.st17{fill:url(#SVGID_15_);}
	.st18{fill:url(#SVGID_16_);}
	.st19{fill:url(#SVGID_17_);}
	.st20{fill:url(#SVGID_18_);}
	.st21{fill:url(#SVGID_19_);}
	.st22{fill:url(#SVGID_20_);}
	.st23{fill:url(#SVGID_21_);}
	.st24{fill:url(#SVGID_22_);}
	.st25{fill:url(#SVGID_23_);}
	.st26{fill:url(#SVGID_24_);}
	.st27{fill:url(#SVGID_25_);}
	.st28{fill:url(#SVGID_26_);}
	.st29{fill:url(#SVGID_27_);}
	.st30{fill:url(#SVGID_28_);}
	.st31{fill:url(#SVGID_29_);}
	.st32{fill:url(#SVGID_30_);}
	.st33{fill:url(#SVGID_31_);}
	.st34{fill:#FFB700;}
	.st35{opacity:0.1;fill:url(#SVGID_32_);}
	.st36{opacity:0.1;fill:url(#SVGID_33_);}
	.st37{opacity:0.1;fill:url(#SVGID_34_);}
	.st38{opacity:0.1;fill:url(#SVGID_35_);}
	.st39{opacity:0.1;fill:url(#SVGID_36_);}
</style>
<g id="Layer_1" class="st0">
	<g id="corporate">
		<g class="st1">
			
				<linearGradient id="SVGID_1_" gradientUnits="userSpaceOnUse" x1="16.6" y1="48.8" x2="36.5478" y2="48.8" gradientTransform="matrix(1 0 0 -1 0 60)">
				<stop  offset="0" style="stop-color:#5F2D5E"/>
				<stop  offset="7.530000e-02" style="stop-color:#642F64"/>
				<stop  offset="0.2485" style="stop-color:#71336E"/>
				<stop  offset="0.3743" style="stop-color:#753472"/>
				<stop  offset="1" style="stop-color:#753472"/>
			</linearGradient>
			<polygon class="st2" points="36.5,1.7 36.5,20.7 26.6,14.9 16.6,20.7 16.6,13.2 			"/>
			
				<linearGradient id="SVGID_2_" gradientUnits="userSpaceOnUse" x1="36.5329" y1="29.65" x2="56.4806" y2="29.65" gradientTransform="matrix(1 0 0 -1 0 60)">
				<stop  offset="0" style="stop-color:#5F2D5E"/>
				<stop  offset="7.530000e-02" style="stop-color:#642F64"/>
				<stop  offset="0.2485" style="stop-color:#71336E"/>
				<stop  offset="0.3743" style="stop-color:#753472"/>
				<stop  offset="1" style="stop-color:#753472"/>
			</linearGradient>
			<polygon class="st3" points="56.5,13.2 56.5,59 46.5,59 46.5,26.4 36.5,20.7 36.5,1.7 			"/>
			
				<linearGradient id="SVGID_3_" gradientUnits="userSpaceOnUse" x1="29.8836" y1="20.15" x2="43.1836" y2="20.15" gradientTransform="matrix(1 0 0 -1 0 60)">
				<stop  offset="0" style="stop-color:#5F2D5E"/>
				<stop  offset="7.530000e-02" style="stop-color:#642F64"/>
				<stop  offset="0.2485" style="stop-color:#71336E"/>
				<stop  offset="0.3743" style="stop-color:#753472"/>
				<stop  offset="1" style="stop-color:#753472"/>
			</linearGradient>
			<path class="st4" d="M29.9,20.7V59h13.3V28.3L29.9,20.7z M33.7,38.3l-1.9-1.1v-2.8l1.9,1.1V38.3z M33.7,33.1L31.9,32v-2.8
				l1.9,1.1L33.7,33.1L33.7,33.1z M33.7,28l-1.9-1.1v-2.8l1.9,1.1V28z M37.5,40.4l-1.9-1.1v-2.8l1.9,1.1V40.4z M37.5,35.3l-1.9-1.1
				v-2.8l1.9,1.1V35.3z M37.5,30.1L35.6,29v-2.8l1.9,1.1V30.1z M41.2,42.6l-1.9-1.1v-2.8l1.9,1.1V42.6z M41.2,37.4l-1.9-1.1v-2.8
				l1.9,1.1V37.4z M41.2,32.3l-1.9-1.1v-2.8l1.9,1.1V32.3z"/>
			
				<linearGradient id="SVGID_4_" gradientUnits="userSpaceOnUse" x1="3.5194" y1="15.25" x2="15.0425" y2="15.25" gradientTransform="matrix(1 0 0 -1 0 60)">
				<stop  offset="0" style="stop-color:#5F2D5E"/>
				<stop  offset="7.530000e-02" style="stop-color:#642F64"/>
				<stop  offset="0.2485" style="stop-color:#71336E"/>
				<stop  offset="0.3743" style="stop-color:#753472"/>
				<stop  offset="1" style="stop-color:#753472"/>
			</linearGradient>
			<polygon class="st5" points="15,30.5 15,59 3.5,59 3.5,37.2 			"/>
			
				<linearGradient id="SVGID_5_" gradientUnits="userSpaceOnUse" x1="15.0425" y1="15.25" x2="26.559" y2="15.25" gradientTransform="matrix(1 0 0 -1 0 60)">
				<stop  offset="0" style="stop-color:#5F2D5E"/>
				<stop  offset="7.530000e-02" style="stop-color:#642F64"/>
				<stop  offset="0.2485" style="stop-color:#71336E"/>
				<stop  offset="0.3743" style="stop-color:#753472"/>
				<stop  offset="1" style="stop-color:#753472"/>
			</linearGradient>
			<polygon class="st6" points="26.6,37.2 26.6,59 15,59 15,30.5 			"/>
			
				<linearGradient id="SVGID_6_" gradientUnits="userSpaceOnUse" x1="9.9382" y1="33.15" x2="23.2382" y2="33.15" gradientTransform="matrix(1 0 0 -1 0 60)">
				<stop  offset="0" style="stop-color:#5F2D5E"/>
				<stop  offset="7.530000e-02" style="stop-color:#642F64"/>
				<stop  offset="0.2485" style="stop-color:#71336E"/>
				<stop  offset="0.3743" style="stop-color:#753472"/>
				<stop  offset="1" style="stop-color:#753472"/>
			</linearGradient>
			<polygon class="st7" points="15,28.2 23.2,33 23.2,20.7 9.9,28.3 9.9,31.2 			"/>
		</g>
	</g>
	<g id="insurance" class="st1">
		<g>
			<g>
				
					<linearGradient id="SVGID_7_" gradientUnits="userSpaceOnUse" x1="6.0769" y1="29.95" x2="52.9949" y2="29.95" gradientTransform="matrix(1 0 0 -1 0 60)">
					<stop  offset="0" style="stop-color:#5F2D5E"/>
					<stop  offset="7.530000e-02" style="stop-color:#642F64"/>
					<stop  offset="0.2485" style="stop-color:#71336E"/>
					<stop  offset="0.3743" style="stop-color:#753472"/>
					<stop  offset="1" style="stop-color:#753472"/>
				</linearGradient>
				<path class="st8" d="M52.5,5.7c-14.6,3.6-22.2-3-23.2-4c0,0,0-0.1-0.1-0.1l-0.1,0.1c-1,1-8.2,8-23,5.3c0,0-1.5,26.4,7.3,37
					c9.4,11.2,17.2,14.5,17.3,14.5c0,0,7.7-3.6,16.5-15.4C55.4,31.9,52.5,5.7,52.5,5.7z"/>
				
					<linearGradient id="SVGID_8_" gradientUnits="userSpaceOnUse" x1="8.3059" y1="29.65" x2="50.8428" y2="29.65" gradientTransform="matrix(1 0 0 -1 0 60)">
					<stop  offset="0" style="stop-color:#5F2D5E"/>
					<stop  offset="0.2485" style="stop-color:#71336E"/>
					<stop  offset="0.3743" style="stop-color:#753472"/>
					<stop  offset="0.5063" style="stop-color:#642F64"/>
					<stop  offset="1" style="stop-color:#753472"/>
				</linearGradient>
				<path class="st9" d="M50.4,8.4c-13.2,3.2-20.1-2.7-21.1-3.6c0,0,0-0.1-0.1-0.1l-0.1,0.1c-0.7,1-7.3,7.2-20.7,4.8
					c0,0-1.4,23.5,6.6,32.9C23.6,52.5,30.6,56,30.7,56c0,0,7-3.8,14.9-14.3C53,31.8,50.4,8.4,50.4,8.4z"/>
				<g>
					
						<linearGradient id="SVGID_9_" gradientUnits="userSpaceOnUse" x1="43.3797" y1="51.1621" x2="62.2368" y2="50.5193" gradientTransform="matrix(1 0 0 -1 0 60)">
						<stop  offset="0" style="stop-color:#5F2D5E"/>
						<stop  offset="7.530000e-02" style="stop-color:#642F64"/>
						<stop  offset="0.2485" style="stop-color:#71336E"/>
						<stop  offset="0.3743" style="stop-color:#753472"/>
						<stop  offset="1" style="stop-color:#753472"/>
					</linearGradient>
					<path class="st10" d="M29.3,7.2C29.3,7.2,29.3,7.1,29.3,7.2c0.1-0.1,0.1,0,0.1,0c1,0.9,7.9,6.8,21.3,3.9
						c-0.1-2.4-0.3-3.9-0.3-3.9c-13.2,3.2-20.1-2.7-21.1-3.6c0,0,0-0.1-0.1-0.1l-0.1,0.1c-0.9,0.9-7.5,7.2-20.8,4.7
						c0,0-0.1,1.5-0.1,3.9C21.7,14.4,28.4,8.1,29.3,7.2z"/>
				</g>
			</g>
			<path class="st11" d="M46.7,15.1c-10,2.4-16.4-2.3-17.1-3c0,0,0-0.1,0,0l0,0c-0.7,0.7-6.8,5.8-16.9,3.9c0,0,0.1,17.9,6.1,25.1
				c6.5,7.7,11.8,9.9,11.8,9.9s5.3-2.5,11.3-10.6C47.4,32.9,46.7,15.1,46.7,15.1z"/>
		</g>
	</g>
</g>
<g id="Layer_2">
	<g>
		<g>
			<linearGradient id="SVGID_10_" gradientUnits="userSpaceOnUse" x1="10.3312" y1="23.4669" x2="19.5892" y2="23.4669">
				<stop  offset="0" style="stop-color:#5F2D5E"/>
				<stop  offset="7.530000e-02" style="stop-color:#642F64"/>
				<stop  offset="0.2485" style="stop-color:#71336E"/>
				<stop  offset="0.3743" style="stop-color:#753472"/>
				<stop  offset="1" style="stop-color:#753472"/>
			</linearGradient>
			<rect x="10.3" y="22.6" class="st12" width="9.3" height="1.7"/>
			<linearGradient id="SVGID_11_" gradientUnits="userSpaceOnUse" x1="10.3312" y1="49.5816" x2="19.5892" y2="49.5816">
				<stop  offset="0" style="stop-color:#5F2D5E"/>
				<stop  offset="7.530000e-02" style="stop-color:#642F64"/>
				<stop  offset="0.2485" style="stop-color:#71336E"/>
				<stop  offset="0.3743" style="stop-color:#753472"/>
				<stop  offset="1" style="stop-color:#753472"/>
			</linearGradient>
			<rect x="10.3" y="48.7" class="st13" width="9.3" height="1.7"/>
			<linearGradient id="SVGID_12_" gradientUnits="userSpaceOnUse" x1="10.6214" y1="36.5243" x2="19.299" y2="36.5243">
				<stop  offset="0" style="stop-color:#5F2D5E"/>
				<stop  offset="7.530000e-02" style="stop-color:#642F64"/>
				<stop  offset="0.2485" style="stop-color:#71336E"/>
				<stop  offset="0.3743" style="stop-color:#753472"/>
				<stop  offset="1" style="stop-color:#753472"/>
			</linearGradient>
			<ellipse class="st14" cx="15" cy="36.5" rx="5.6" ry="16"/>
		</g>
		<g>
			<linearGradient id="SVGID_13_" gradientUnits="userSpaceOnUse" x1="25.3537" y1="23.4669" x2="34.6117" y2="23.4669">
				<stop  offset="0" style="stop-color:#5F2D5E"/>
				<stop  offset="7.530000e-02" style="stop-color:#642F64"/>
				<stop  offset="0.2485" style="stop-color:#71336E"/>
				<stop  offset="0.3743" style="stop-color:#753472"/>
				<stop  offset="1" style="stop-color:#753472"/>
			</linearGradient>
			<rect x="25.4" y="22.6" class="st15" width="9.3" height="1.7"/>
			<linearGradient id="SVGID_14_" gradientUnits="userSpaceOnUse" x1="25.3537" y1="49.5816" x2="34.6117" y2="49.5816">
				<stop  offset="0" style="stop-color:#5F2D5E"/>
				<stop  offset="7.530000e-02" style="stop-color:#642F64"/>
				<stop  offset="0.2485" style="stop-color:#71336E"/>
				<stop  offset="0.3743" style="stop-color:#753472"/>
				<stop  offset="1" style="stop-color:#753472"/>
			</linearGradient>
			<rect x="25.4" y="48.7" class="st16" width="9.3" height="1.7"/>
			<linearGradient id="SVGID_15_" gradientUnits="userSpaceOnUse" x1="25.6439" y1="36.5243" x2="34.3215" y2="36.5243">
				<stop  offset="0" style="stop-color:#5F2D5E"/>
				<stop  offset="7.530000e-02" style="stop-color:#642F64"/>
				<stop  offset="0.2485" style="stop-color:#71336E"/>
				<stop  offset="0.3743" style="stop-color:#753472"/>
				<stop  offset="1" style="stop-color:#753472"/>
			</linearGradient>
			<ellipse class="st17" cx="30" cy="36.5" rx="5.6" ry="16"/>
		</g>
		<g>
			<linearGradient id="SVGID_16_" gradientUnits="userSpaceOnUse" x1="40.3762" y1="23.4669" x2="49.6342" y2="23.4669">
				<stop  offset="0" style="stop-color:#5F2D5E"/>
				<stop  offset="7.530000e-02" style="stop-color:#642F64"/>
				<stop  offset="0.2485" style="stop-color:#71336E"/>
				<stop  offset="0.3743" style="stop-color:#753472"/>
				<stop  offset="1" style="stop-color:#753472"/>
			</linearGradient>
			<rect x="40.4" y="22.6" class="st18" width="9.3" height="1.7"/>
			<linearGradient id="SVGID_17_" gradientUnits="userSpaceOnUse" x1="40.3762" y1="49.5816" x2="49.6342" y2="49.5816">
				<stop  offset="0" style="stop-color:#5F2D5E"/>
				<stop  offset="7.530000e-02" style="stop-color:#642F64"/>
				<stop  offset="0.2485" style="stop-color:#71336E"/>
				<stop  offset="0.3743" style="stop-color:#753472"/>
				<stop  offset="1" style="stop-color:#753472"/>
			</linearGradient>
			<rect x="40.4" y="48.7" class="st19" width="9.3" height="1.7"/>
			<linearGradient id="SVGID_18_" gradientUnits="userSpaceOnUse" x1="40.6664" y1="36.5243" x2="49.344" y2="36.5243">
				<stop  offset="0" style="stop-color:#5F2D5E"/>
				<stop  offset="7.530000e-02" style="stop-color:#642F64"/>
				<stop  offset="0.2485" style="stop-color:#71336E"/>
				<stop  offset="0.3743" style="stop-color:#753472"/>
				<stop  offset="1" style="stop-color:#753472"/>
			</linearGradient>
			<ellipse class="st20" cx="45" cy="36.5" rx="5.6" ry="16"/>
		</g>
		<g>
			<linearGradient id="SVGID_19_" gradientUnits="userSpaceOnUse" x1="5.5162" y1="51.7214" x2="54.4491" y2="51.7214">
				<stop  offset="0" style="stop-color:#5F2D5E"/>
				<stop  offset="7.530000e-02" style="stop-color:#642F64"/>
				<stop  offset="0.2485" style="stop-color:#71336E"/>
				<stop  offset="0.3743" style="stop-color:#753472"/>
				<stop  offset="1" style="stop-color:#753472"/>
			</linearGradient>
			<rect x="5.5" y="50.5" class="st21" width="48.9" height="2.5"/>
			<linearGradient id="SVGID_20_" gradientUnits="userSpaceOnUse" x1="4.0949" y1="54.2543" x2="55.8705" y2="54.2543">
				<stop  offset="0" style="stop-color:#5F2D5E"/>
				<stop  offset="7.530000e-02" style="stop-color:#642F64"/>
				<stop  offset="0.2485" style="stop-color:#71336E"/>
				<stop  offset="0.3743" style="stop-color:#753472"/>
				<stop  offset="1" style="stop-color:#753472"/>
			</linearGradient>
			<rect x="4.1" y="53" class="st22" width="51.8" height="2.5"/>
			<linearGradient id="SVGID_21_" gradientUnits="userSpaceOnUse" x1="2.4706" y1="56.7871" x2="57.4948" y2="56.7871">
				<stop  offset="0" style="stop-color:#5F2D5E"/>
				<stop  offset="7.530000e-02" style="stop-color:#642F64"/>
				<stop  offset="0.2485" style="stop-color:#71336E"/>
				<stop  offset="0.3743" style="stop-color:#753472"/>
				<stop  offset="1" style="stop-color:#753472"/>
			</linearGradient>
			<rect x="2.5" y="55.5" class="st23" width="55" height="2.5"/>
			<linearGradient id="SVGID_22_" gradientUnits="userSpaceOnUse" x1="5.5162" y1="52.3546" x2="54.4491" y2="52.3546">
				<stop  offset="0" style="stop-color:#5F2D5E"/>
				<stop  offset="7.530000e-02" style="stop-color:#642F64"/>
				<stop  offset="0.2485" style="stop-color:#71336E"/>
				<stop  offset="0.3743" style="stop-color:#753472"/>
				<stop  offset="1" style="stop-color:#753472"/>
			</linearGradient>
			<rect x="5.5" y="51.7" class="st24" width="48.9" height="1.3"/>
			<linearGradient id="SVGID_23_" gradientUnits="userSpaceOnUse" x1="4.0949" y1="54.8875" x2="55.8705" y2="54.8875">
				<stop  offset="0" style="stop-color:#5F2D5E"/>
				<stop  offset="7.530000e-02" style="stop-color:#642F64"/>
				<stop  offset="0.2485" style="stop-color:#71336E"/>
				<stop  offset="0.3743" style="stop-color:#753472"/>
				<stop  offset="1" style="stop-color:#753472"/>
			</linearGradient>
			<rect x="4.1" y="54.3" class="st25" width="51.8" height="1.3"/>
			<linearGradient id="SVGID_24_" gradientUnits="userSpaceOnUse" x1="2.4706" y1="57.4204" x2="57.4948" y2="57.4204">
				<stop  offset="0" style="stop-color:#5F2D5E"/>
				<stop  offset="7.530000e-02" style="stop-color:#642F64"/>
				<stop  offset="0.2485" style="stop-color:#71336E"/>
				<stop  offset="0.3743" style="stop-color:#753472"/>
				<stop  offset="1" style="stop-color:#753472"/>
			</linearGradient>
			<rect x="2.5" y="56.8" class="st26" width="55" height="1.3"/>
		</g>
		<linearGradient id="SVGID_25_" gradientUnits="userSpaceOnUse" x1="8.0603" y1="21.0214" x2="51.905" y2="21.0214">
			<stop  offset="0" style="stop-color:#5F2D5E"/>
			<stop  offset="7.530000e-02" style="stop-color:#642F64"/>
			<stop  offset="0.2485" style="stop-color:#71336E"/>
			<stop  offset="0.3743" style="stop-color:#753472"/>
			<stop  offset="1" style="stop-color:#753472"/>
		</linearGradient>
		<rect x="8.1" y="19.4" class="st27" width="43.8" height="3.1"/>
		<linearGradient id="SVGID_26_" gradientUnits="userSpaceOnUse" x1="5.8617" y1="17.9259" x2="54.1037" y2="17.9259">
			<stop  offset="0" style="stop-color:#5F2D5E"/>
			<stop  offset="7.530000e-02" style="stop-color:#642F64"/>
			<stop  offset="0.2485" style="stop-color:#71336E"/>
			<stop  offset="0.3743" style="stop-color:#753472"/>
			<stop  offset="1" style="stop-color:#753472"/>
		</linearGradient>
		<rect x="5.9" y="16.4" class="st28" width="48.2" height="3"/>
		<g>
			<g>
				<linearGradient id="SVGID_27_" gradientUnits="userSpaceOnUse" x1="5.8617" y1="9.1469" x2="54.1037" y2="9.1469">
					<stop  offset="0" style="stop-color:#5F2D5E"/>
					<stop  offset="7.530000e-02" style="stop-color:#642F64"/>
					<stop  offset="0.2485" style="stop-color:#71336E"/>
					<stop  offset="0.3743" style="stop-color:#753472"/>
					<stop  offset="1" style="stop-color:#753472"/>
				</linearGradient>
				<polygon class="st29" points="5.9,16.4 30,1.9 54.1,16.4 				"/>
				<linearGradient id="SVGID_28_" gradientUnits="userSpaceOnUse" x1="5.8617" y1="9.1469" x2="54.1037" y2="9.1469">
					<stop  offset="0" style="stop-color:#5F2D5E"/>
					<stop  offset="7.530000e-02" style="stop-color:#642F64"/>
					<stop  offset="0.2485" style="stop-color:#71336E"/>
					<stop  offset="0.3743" style="stop-color:#753472"/>
					<stop  offset="1" style="stop-color:#753472"/>
				</linearGradient>
				<path class="st30" d="M30,5.2L44,13.6H15.9L30,5.2L30,5.2z M30,1.9L5.9,16.4h48.2L30,1.9L30,1.9z"/>
			</g>
			<g>
				<linearGradient id="SVGID_29_" gradientUnits="userSpaceOnUse" x1="5.8617" y1="9.1469" x2="54.1037" y2="9.1469">
					<stop  offset="0" style="stop-color:#5F2D5E"/>
					<stop  offset="7.530000e-02" style="stop-color:#642F64"/>
					<stop  offset="0.2485" style="stop-color:#71336E"/>
					<stop  offset="0.3743" style="stop-color:#753472"/>
					<stop  offset="1" style="stop-color:#753472"/>
				</linearGradient>
				<polygon class="st31" points="5.9,16.4 30,1.9 54.1,16.4 				"/>
				<linearGradient id="SVGID_30_" gradientUnits="userSpaceOnUse" x1="5.8617" y1="9.1469" x2="54.1037" y2="9.1469">
					<stop  offset="0" style="stop-color:#5F2D5E"/>
					<stop  offset="7.530000e-02" style="stop-color:#642F64"/>
					<stop  offset="0.2485" style="stop-color:#71336E"/>
					<stop  offset="0.3743" style="stop-color:#753472"/>
					<stop  offset="1" style="stop-color:#753472"/>
				</linearGradient>
				<path class="st32" d="M30,5.2L44,13.6H15.9L30,5.2L30,5.2z M30,1.9L5.9,16.4h48.2L30,1.9L30,1.9z"/>
			</g>
		</g>
		<linearGradient id="SVGID_31_" gradientUnits="userSpaceOnUse" x1="28.5498" y1="10.0113" x2="32.0429" y2="10.0113">
			<stop  offset="0" style="stop-color:#5F2D5E"/>
			<stop  offset="7.530000e-02" style="stop-color:#642F64"/>
			<stop  offset="0.2485" style="stop-color:#71336E"/>
			<stop  offset="0.3743" style="stop-color:#753472"/>
			<stop  offset="1" style="stop-color:#753472"/>
		</linearGradient>
		<path class="st33" d="M31.9,10.4c-0.1-0.2-0.2-0.3-0.3-0.4c-0.1-0.1-0.3-0.2-0.5-0.3c-0.2-0.1-0.3-0.1-0.5-0.2l-0.4-0.2
			c-0.2-0.1-0.3-0.1-0.4-0.2c-0.1-0.1-0.2-0.2-0.2-0.4c0-0.1,0.1-0.3,0.2-0.3C30.2,8,30.9,8.2,31,8.2c0.1,0,0.2,0.1,0.2,0.1
			c0.1,0,0.1,0.1,0.2,0.1c0,0,0.1,0,0.2,0c0.1,0,0.1,0,0.2-0.1c0,0,0.1-0.1,0.1-0.1c0-0.1,0.1-0.1,0.1-0.2c0-0.1,0-0.1,0-0.2
			c0-0.1,0-0.2-0.1-0.3c-0.1-0.1-0.2-0.1-0.3-0.2c-0.1,0-0.3-0.1-0.4-0.1c-0.1,0-0.3,0-0.4,0V7.1c0-0.1,0-0.1-0.1-0.1
			C30.5,7,30.4,7,30.4,7c-0.1,0-0.1,0-0.2,0.1c0,0-0.1,0.1-0.1,0.1v0.2c-0.2,0-0.4,0.1-0.5,0.1c-0.2,0.1-0.3,0.2-0.5,0.3
			C29,7.9,28.9,8,28.8,8.2c-0.1,0.2-0.1,0.4-0.1,0.6c0,0.2,0,0.4,0.1,0.6c0.1,0.2,0.2,0.3,0.3,0.4c0.1,0.1,0.3,0.2,0.5,0.3
			c0.2,0.1,0.3,0.1,0.5,0.2l0.4,0.2c0.2,0.1,0.3,0.2,0.4,0.3c0.1,0.1,0.2,0.2,0.2,0.4c0,0.2-0.1,0.3-0.2,0.4
			c-0.1,0.1-0.2,0.2-0.4,0.2c-0.1,0.1-0.6,0-0.9-0.1c-0.1-0.1-0.2-0.1-0.3-0.2c-0.1-0.1-0.2-0.1-0.2-0.2c-0.1-0.1-0.1-0.1-0.2-0.1
			c-0.1,0-0.1,0-0.2,0.1c0,0-0.1,0.1-0.1,0.1c0,0.1-0.1,0.1-0.1,0.2c0,0.1,0,0.1,0,0.2c0,0.1,0,0.2,0.1,0.3c0.1,0.1,0.2,0.2,0.3,0.3
			c0.1,0.1,0.3,0.2,0.5,0.2c0.2,0.1,0.4,0.1,0.6,0.1v0.2c0,0.1,0,0.1,0.1,0.1c0,0,0.1,0.1,0.2,0.1c0.1,0,0.1,0,0.2-0.1
			c0.1,0,0.1-0.1,0.1-0.1v-0.2c0.4-0.1,0.8-0.2,1-0.5c0.3-0.3,0.4-0.6,0.4-1.1C32,10.8,32,10.6,31.9,10.4z"/>
		<g>
			<path class="st34" d="M33.1,13c-0.1-0.3-0.3-0.6-0.6-0.8c-0.2-0.2-0.5-0.4-0.8-0.5c-0.3-0.1-0.6-0.3-0.9-0.4L30.1,11
				c-0.3-0.1-0.5-0.3-0.7-0.4c-0.2-0.1-0.3-0.4-0.3-0.6c0-0.2,0.1-0.4,0.3-0.6c0.7-0.6,1.9-0.3,2.1-0.2c0.1,0.1,0.3,0.1,0.4,0.2
				c0.1,0.1,0.2,0.1,0.3,0.1c0.1,0,0.2,0.1,0.3,0.1c0.1,0,0.2,0,0.3-0.1c0.1-0.1,0.2-0.1,0.2-0.2C33,9.1,33,9,33,8.9
				c0-0.1,0-0.2,0-0.3c0-0.2-0.1-0.3-0.2-0.5c-0.1-0.1-0.3-0.2-0.6-0.3c-0.2-0.1-0.5-0.1-0.7-0.2c-0.3,0-0.5-0.1-0.7-0.1V7.3
				c0-0.1,0-0.2-0.1-0.2C30.7,7,30.6,7,30.4,7c-0.1,0-0.2,0-0.3,0.1C30.1,7.2,30,7.2,30,7.3v0.4c-0.3,0-0.6,0.1-0.9,0.2
				c-0.3,0.1-0.6,0.3-0.8,0.5c-0.2,0.2-0.4,0.4-0.5,0.7c-0.1,0.3-0.2,0.6-0.2,1.1c0,0.4,0.1,0.8,0.2,1c0.1,0.3,0.3,0.5,0.6,0.7
				c0.2,0.2,0.5,0.4,0.8,0.5c0.3,0.1,0.6,0.2,0.9,0.4l0.8,0.3c0.3,0.1,0.5,0.3,0.7,0.4c0.2,0.2,0.3,0.4,0.3,0.7
				c0,0.3-0.1,0.5-0.3,0.7c-0.2,0.2-0.4,0.3-0.7,0.3c-0.2,0.1-1,0.1-1.5-0.2c-0.2-0.1-0.4-0.2-0.5-0.3c-0.1-0.1-0.3-0.2-0.4-0.3
				c-0.1-0.1-0.2-0.1-0.4-0.1c-0.1,0-0.2,0-0.3,0.1c-0.1,0.1-0.2,0.1-0.2,0.2c-0.1,0.1-0.1,0.2-0.2,0.3c0,0.1-0.1,0.2-0.1,0.3
				c0,0.2,0.1,0.4,0.2,0.5c0.1,0.2,0.3,0.4,0.6,0.5c0.2,0.2,0.5,0.3,0.9,0.4c0.3,0.1,0.7,0.1,1.1,0.1v0.4c0,0.1,0,0.2,0.1,0.2
				c0.1,0.1,0.2,0.1,0.3,0.1c0.1,0,0.2,0,0.3-0.1c0.1-0.1,0.1-0.1,0.1-0.2v-0.4c0.7-0.1,1.3-0.4,1.7-0.9c0.4-0.5,0.7-1.1,0.7-1.9
				C33.3,13.6,33.2,13.3,33.1,13z"/>
		</g>
		<linearGradient id="SVGID_32_" gradientUnits="userSpaceOnUse" x1="5.8617" y1="12.2424" x2="29.9827" y2="12.2424">
			<stop  offset="0" style="stop-color:#642F64"/>
			<stop  offset="1" style="stop-color:#FFFFFF"/>
		</linearGradient>
		<polygon class="st35" points="5.9,16.4 5.9,19.4 8.1,19.4 8.1,22.6 30,22.6 30,1.9 		"/>
		<linearGradient id="SVGID_33_" gradientUnits="userSpaceOnUse" x1="10.3312" y1="36.5243" x2="14.9602" y2="36.5243">
			<stop  offset="0" style="stop-color:#642F64"/>
			<stop  offset="1" style="stop-color:#FFFFFF"/>
		</linearGradient>
		<path class="st36" d="M15,22.6h-4.6v1.7h1c-0.9,8.1-0.9,16.3,0,24.4h-1v1.7H15V22.6z"/>
		<linearGradient id="SVGID_34_" gradientUnits="userSpaceOnUse" x1="25.3537" y1="36.5243" x2="29.9827" y2="36.5243">
			<stop  offset="0" style="stop-color:#642F64"/>
			<stop  offset="1" style="stop-color:#FFFFFF"/>
		</linearGradient>
		<path class="st37" d="M30,22.6h-4.6v1.7h1c-0.9,8.1-0.9,16.3,0,24.4h-1v1.7H30V22.6z"/>
		<linearGradient id="SVGID_35_" gradientUnits="userSpaceOnUse" x1="40.3762" y1="36.5243" x2="45.0052" y2="36.5243">
			<stop  offset="0" style="stop-color:#642F64"/>
			<stop  offset="1" style="stop-color:#FFFFFF"/>
		</linearGradient>
		<path class="st38" d="M45,22.6h-4.6v1.7h1c-0.9,8.1-0.9,16.3,0,24.4h-1v1.7H45V22.6z"/>
		<linearGradient id="SVGID_36_" gradientUnits="userSpaceOnUse" x1="2.4706" y1="54.2543" x2="29.9827" y2="54.2543">
			<stop  offset="0" style="stop-color:#642F64"/>
			<stop  offset="1" style="stop-color:#FFFFFF"/>
		</linearGradient>
		<polygon class="st39" points="30,50.5 5.5,50.5 5.5,51.7 5.5,53 4.1,53 4.1,54.3 4.1,55.5 2.5,55.5 2.5,56.8 2.5,58.1 30,58.1 		
			"/>
	</g>
</g>
</svg>
