<?xml version="1.0" encoding="utf-8"?>
<!-- Generator: Adobe Illustrator 23.0.3, SVG Export Plug-In . SVG Version: 6.00 Build 0)  -->
<svg version="1.1" xmlns="http://www.w3.org/2000/svg" xmlns:xlink="http://www.w3.org/1999/xlink" x="0px" y="0px"
	 viewBox="0 0 60 60" style="enable-background:new 0 0 60 60;" xml:space="preserve">
<style type="text/css">
	.st0{display:none;}
	.st1{display:inline;}
	.st2{fill:url(#SVGID_1_);}
	.st3{fill:url(#SVGID_2_);}
	.st4{fill:url(#SVGID_3_);}
	.st5{fill:url(#SVGID_4_);}
	.st6{fill:url(#SVGID_5_);}
	.st7{fill:url(#SVGID_6_);}
	.st8{fill:url(#SVGID_9_);}
	.st9{fill:url(#SVGID_10_);}
	.st10{fill:url(#SVGID_11_);}
	.st11{fill:#F1F5F6;}
</style>
<g id="corporate" class="st0">
	<g class="st1">
		<linearGradient id="SVGID_1_" gradientUnits="userSpaceOnUse" x1="16.5851" y1="11.1885" x2="36.5329" y2="11.1885">
			<stop  offset="0" style="stop-color:#5F2D5E"/>
			<stop  offset="7.530000e-02" style="stop-color:#642F64"/>
			<stop  offset="0.2485" style="stop-color:#71336E"/>
			<stop  offset="0.3743" style="stop-color:#753472"/>
			<stop  offset="1" style="stop-color:#753472"/>
		</linearGradient>
		<polygon class="st2" points="36.5,1.7 36.5,20.7 26.6,14.9 16.6,20.7 16.6,13.2 		"/>
		<linearGradient id="SVGID_2_" gradientUnits="userSpaceOnUse" x1="36.5329" y1="30.3617" x2="56.4806" y2="30.3617">
			<stop  offset="0" style="stop-color:#5F2D5E"/>
			<stop  offset="7.530000e-02" style="stop-color:#642F64"/>
			<stop  offset="0.2485" style="stop-color:#71336E"/>
			<stop  offset="0.3743" style="stop-color:#753472"/>
			<stop  offset="1" style="stop-color:#753472"/>
		</linearGradient>
		<polygon class="st3" points="56.5,13.2 56.5,59 46.5,59 46.5,26.4 36.5,20.7 36.5,1.7 		"/>
		<linearGradient id="SVGID_3_" gradientUnits="userSpaceOnUse" x1="29.8836" y1="39.8269" x2="43.1822" y2="39.8269">
			<stop  offset="0" style="stop-color:#5F2D5E"/>
			<stop  offset="7.530000e-02" style="stop-color:#642F64"/>
			<stop  offset="0.2485" style="stop-color:#71336E"/>
			<stop  offset="0.3743" style="stop-color:#753472"/>
			<stop  offset="1" style="stop-color:#753472"/>
		</linearGradient>
		<path class="st4" d="M29.9,20.7V59h13.3V28.3L29.9,20.7z M33.7,38.3l-1.9-1.1v-2.8l1.9,1.1V38.3z M33.7,33.1L31.9,32v-2.8l1.9,1.1
			V33.1z M33.7,28l-1.9-1.1v-2.8l1.9,1.1V28z M37.5,40.4l-1.9-1.1v-2.8l1.9,1.1V40.4z M37.5,35.3l-1.9-1.1v-2.8l1.9,1.1V35.3z
			 M37.5,30.1L35.6,29v-2.8l1.9,1.1V30.1z M41.2,42.6l-1.9-1.1v-2.8l1.9,1.1V42.6z M41.2,37.4l-1.9-1.1v-2.8l1.9,1.1V37.4z
			 M41.2,32.3l-1.9-1.1v-2.8l1.9,1.1V32.3z"/>
		<linearGradient id="SVGID_4_" gradientUnits="userSpaceOnUse" x1="3.5194" y1="44.764" x2="15.0425" y2="44.764">
			<stop  offset="0" style="stop-color:#5F2D5E"/>
			<stop  offset="7.530000e-02" style="stop-color:#642F64"/>
			<stop  offset="0.2485" style="stop-color:#71336E"/>
			<stop  offset="0.3743" style="stop-color:#753472"/>
			<stop  offset="1" style="stop-color:#753472"/>
		</linearGradient>
		<polygon class="st5" points="15,30.5 15,59 3.5,59 3.5,37.2 		"/>
		<linearGradient id="SVGID_5_" gradientUnits="userSpaceOnUse" x1="15.0425" y1="44.764" x2="26.559" y2="44.764">
			<stop  offset="0" style="stop-color:#5F2D5E"/>
			<stop  offset="7.530000e-02" style="stop-color:#642F64"/>
			<stop  offset="0.2485" style="stop-color:#71336E"/>
			<stop  offset="0.3743" style="stop-color:#753472"/>
			<stop  offset="1" style="stop-color:#753472"/>
		</linearGradient>
		<polygon class="st6" points="26.6,37.2 26.6,59 15,59 15,30.5 		"/>
		<linearGradient id="SVGID_6_" gradientUnits="userSpaceOnUse" x1="9.9382" y1="26.806" x2="23.2367" y2="26.806">
			<stop  offset="0" style="stop-color:#5F2D5E"/>
			<stop  offset="7.530000e-02" style="stop-color:#642F64"/>
			<stop  offset="0.2485" style="stop-color:#71336E"/>
			<stop  offset="0.3743" style="stop-color:#753472"/>
			<stop  offset="1" style="stop-color:#753472"/>
		</linearGradient>
		<polygon class="st7" points="15,28.2 23.2,33 23.2,20.7 9.9,28.3 9.9,31.2 		"/>
	</g>
	<g class="st1">
		<g>
			<defs>
				<rect id="SVGID_7_" x="-334.7" y="-127.2" width="477.2" height="424.2"/>
			</defs>
			<clipPath id="SVGID_8_">
				<use xlink:href="#SVGID_7_"  style="overflow:visible;"/>
			</clipPath>
		</g>
	</g>
</g>
<g id="insurance">
	<g>
		<g>
			<linearGradient id="SVGID_9_" gradientUnits="userSpaceOnUse" x1="6.0769" y1="29.9715" x2="52.9949" y2="29.9715">
				<stop  offset="0" style="stop-color:#5F2D5E"/>
				<stop  offset="7.530000e-02" style="stop-color:#642F64"/>
				<stop  offset="0.2485" style="stop-color:#71336E"/>
				<stop  offset="0.3743" style="stop-color:#753472"/>
				<stop  offset="1" style="stop-color:#753472"/>
			</linearGradient>
			<path class="st8" d="M52.5,5.7c-14.6,3.6-22.2-3-23.2-4c0,0,0-0.1-0.1-0.1c0,0-0.1,0.1-0.1,0.1c-1,1-8.2,8-23,5.3
				c0,0-1.5,26.4,7.3,37c9.4,11.2,17.2,14.5,17.3,14.5c0,0,7.7-3.6,16.5-15.4C55.4,31.9,52.5,5.7,52.5,5.7z"/>
			<linearGradient id="SVGID_10_" gradientUnits="userSpaceOnUse" x1="8.3008" y1="30.4003" x2="50.873" y2="30.4003">
				<stop  offset="0" style="stop-color:#5F2D5E"/>
				<stop  offset="0.2485" style="stop-color:#71336E"/>
				<stop  offset="0.3743" style="stop-color:#753472"/>
				<stop  offset="0.5063" style="stop-color:#642F64"/>
				<stop  offset="1" style="stop-color:#753472"/>
			</linearGradient>
			<path class="st9" d="M50.4,8.4c-13.2,3.2-20.1-2.7-21.1-3.6c0,0,0-0.1-0.1-0.1c0,0-0.1,0.1-0.1,0.1C28.4,5.8,21.8,12,8.4,9.6
				c0,0-1.4,23.5,6.6,32.9C23.6,52.5,30.6,56,30.7,56c0,0,7-3.8,14.9-14.3C53,31.8,50.4,8.4,50.4,8.4z"/>
			<g>
				<linearGradient id="SVGID_11_" gradientUnits="userSpaceOnUse" x1="43.3773" y1="8.9091" x2="62.2344" y2="9.5519">
					<stop  offset="0" style="stop-color:#5F2D5E"/>
					<stop  offset="7.530000e-02" style="stop-color:#642F64"/>
					<stop  offset="0.2485" style="stop-color:#71336E"/>
					<stop  offset="0.3743" style="stop-color:#753472"/>
					<stop  offset="1" style="stop-color:#753472"/>
				</linearGradient>
				<path class="st10" d="M29.3,7.2C29.3,7.2,29.3,7.1,29.3,7.2c0.1-0.1,0.1,0,0.1,0c1,0.9,7.9,6.8,21.3,3.9
					c-0.1-2.4-0.3-3.9-0.3-3.9c-13.2,3.2-20.1-2.7-21.1-3.6c0,0,0-0.1-0.1-0.1c0,0-0.1,0.1-0.1,0.1c-0.9,0.9-7.5,7.2-20.8,4.7
					c0,0-0.1,1.5-0.1,3.9C21.7,14.4,28.4,8.1,29.3,7.2z"/>
			</g>
		</g>
		<path class="st11" d="M46.7,15.1c-10,2.4-16.4-2.3-17.1-3c0,0,0-0.1,0,0c0,0,0,0,0,0c-0.7,0.7-6.8,5.8-16.9,3.9
			c0,0,0.1,17.9,6.1,25.1c6.5,7.7,11.8,9.9,11.8,9.9c0,0,5.3-2.5,11.3-10.6C47.4,32.9,46.7,15.1,46.7,15.1z"/>
	</g>
</g>
</svg>
